<mxfile host="Electron" agent="Mozilla/5.0 (Windows NT 10.0; Win64; x64) AppleWebKit/537.36 (KHTML, like Gecko) draw.io/27.0.2 Chrome/134.0.6998.205 Electron/35.3.0 Safari/537.36" version="27.0.2">
  <diagram id="C5RBs43oDa-KdzZeNtuy" name="Page-1">
    <mxGraphModel dx="1150" dy="847" grid="1" gridSize="10" guides="1" tooltips="1" connect="1" arrows="1" fold="1" page="1" pageScale="1" pageWidth="827" pageHeight="1169" math="0" shadow="0">
      <root>
        <mxCell id="WIyWlLk6GJQsqaUBKTNV-0" />
        <mxCell id="WIyWlLk6GJQsqaUBKTNV-1" parent="WIyWlLk6GJQsqaUBKTNV-0" />
        <mxCell id="8BG8HPBIlBgsWmAWCIfI-9" value="" style="rounded=1;whiteSpace=wrap;html=1;fillColor=#dae8fc;strokeColor=#6c8ebf;" parent="WIyWlLk6GJQsqaUBKTNV-1" vertex="1">
          <mxGeometry x="285" y="330" width="290" height="240" as="geometry" />
        </mxCell>
        <mxCell id="8BG8HPBIlBgsWmAWCIfI-10" value="&lt;font style=&quot;font-size: 18px;&quot;&gt;SecAPI3 TA&lt;/font&gt;" style="text;html=1;strokeColor=none;fillColor=none;align=center;verticalAlign=middle;whiteSpace=wrap;rounded=0;" parent="WIyWlLk6GJQsqaUBKTNV-1" vertex="1">
          <mxGeometry x="295" y="340" width="120" height="30" as="geometry" />
        </mxCell>
        <mxCell id="8BG8HPBIlBgsWmAWCIfI-11" value="&lt;font style=&quot;font-size: 14px;&quot;&gt;FKPS Encrypted DRM Key&lt;/font&gt;" style="rounded=0;whiteSpace=wrap;html=1;fillColor=#0050ef;fontColor=#ffffff;strokeColor=#001DBC;" parent="WIyWlLk6GJQsqaUBKTNV-1" vertex="1">
          <mxGeometry x="340" y="420" width="180" height="30" as="geometry" />
        </mxCell>
        <mxCell id="8BG8HPBIlBgsWmAWCIfI-12" value="&lt;font style=&quot;font-size: 14px;&quot;&gt;SecAPI3 DRM Key&lt;/font&gt;" style="rounded=0;whiteSpace=wrap;html=1;fillColor=#0050ef;fontColor=#ffffff;strokeColor=#001DBC;" parent="WIyWlLk6GJQsqaUBKTNV-1" vertex="1">
          <mxGeometry x="340" y="449.5" width="180" height="30" as="geometry" />
        </mxCell>
        <mxCell id="8BG8HPBIlBgsWmAWCIfI-16" value="" style="rounded=1;whiteSpace=wrap;html=1;fillColor=#dae8fc;strokeColor=#6c8ebf;" parent="WIyWlLk6GJQsqaUBKTNV-1" vertex="1">
          <mxGeometry x="280" y="640" width="300" height="236" as="geometry" />
        </mxCell>
        <mxCell id="8BG8HPBIlBgsWmAWCIfI-17" value="&lt;font style=&quot;font-size: 18px;&quot;&gt;SoC TA&lt;/font&gt;" style="text;html=1;strokeColor=none;fillColor=none;align=center;verticalAlign=middle;whiteSpace=wrap;rounded=0;" parent="WIyWlLk6GJQsqaUBKTNV-1" vertex="1">
          <mxGeometry x="310" y="650" width="81" height="30" as="geometry" />
        </mxCell>
        <mxCell id="8BG8HPBIlBgsWmAWCIfI-23" value="" style="shape=cylinder3;whiteSpace=wrap;html=1;boundedLbl=1;backgroundOutline=1;size=15;fontSize=14;fillColor=#1ba1e2;fontColor=#ffffff;strokeColor=#006EAF;" parent="WIyWlLk6GJQsqaUBKTNV-1" vertex="1">
          <mxGeometry x="410" y="790" width="40" height="67" as="geometry" />
        </mxCell>
        <mxCell id="8BG8HPBIlBgsWmAWCIfI-25" value="" style="shape=flexArrow;endArrow=classic;html=1;rounded=0;fontSize=14;width=13;endSize=5.53;" parent="WIyWlLk6GJQsqaUBKTNV-1" edge="1">
          <mxGeometry width="50" height="50" relative="1" as="geometry">
            <mxPoint x="430" y="740" as="sourcePoint" />
            <mxPoint x="429.5" y="773" as="targetPoint" />
          </mxGeometry>
        </mxCell>
        <mxCell id="8BG8HPBIlBgsWmAWCIfI-27" value="Secure Storage" style="text;html=1;strokeColor=none;fillColor=none;align=center;verticalAlign=middle;whiteSpace=wrap;rounded=0;fontSize=14;" parent="WIyWlLk6GJQsqaUBKTNV-1" vertex="1">
          <mxGeometry x="450" y="827" width="80.5" height="30" as="geometry" />
        </mxCell>
        <mxCell id="8BG8HPBIlBgsWmAWCIfI-29" value="" style="endArrow=classic;html=1;rounded=0;fontSize=14;exitX=0.5;exitY=1;exitDx=0;exitDy=0;" parent="WIyWlLk6GJQsqaUBKTNV-1" target="8BG8HPBIlBgsWmAWCIfI-12" edge="1">
          <mxGeometry width="50" height="50" relative="1" as="geometry">
            <mxPoint x="430" y="424.5" as="sourcePoint" />
            <mxPoint x="475" y="424.5" as="targetPoint" />
          </mxGeometry>
        </mxCell>
        <mxCell id="8BG8HPBIlBgsWmAWCIfI-31" value="" style="endArrow=classic;html=1;rounded=0;fontSize=14;exitX=0.5;exitY=1;exitDx=0;exitDy=0;entryX=0.173;entryY=0;entryDx=0;entryDy=0;entryPerimeter=0;" parent="WIyWlLk6GJQsqaUBKTNV-1" source="8BG8HPBIlBgsWmAWCIfI-12" edge="1">
          <mxGeometry width="50" height="50" relative="1" as="geometry">
            <mxPoint x="425" y="664.5" as="sourcePoint" />
            <mxPoint x="429.03" y="504.5" as="targetPoint" />
          </mxGeometry>
        </mxCell>
        <mxCell id="8BG8HPBIlBgsWmAWCIfI-32" value="&lt;font style=&quot;font-size: 14px;&quot;&gt;SOC DRM Key Format&lt;/font&gt;" style="rounded=0;whiteSpace=wrap;html=1;fillColor=#e1d5e7;strokeColor=#9673a6;" parent="WIyWlLk6GJQsqaUBKTNV-1" vertex="1">
          <mxGeometry x="340" y="501.5" width="180" height="30" as="geometry" />
        </mxCell>
        <mxCell id="8BG8HPBIlBgsWmAWCIfI-33" value="&lt;font style=&quot;font-size: 14px;&quot;&gt;SoC TA Formatted Key(s)/Credential(s)&lt;/font&gt;" style="rounded=0;whiteSpace=wrap;html=1;fillColor=#e1d5e7;strokeColor=#9673a6;" parent="WIyWlLk6GJQsqaUBKTNV-1" vertex="1">
          <mxGeometry x="340" y="680" width="180" height="50" as="geometry" />
        </mxCell>
        <mxCell id="rSAbFD3-HXAI0_QFLw_8-0" value="" style="rounded=1;whiteSpace=wrap;html=1;fillColor=#dae8fc;strokeColor=#6c8ebf;" parent="WIyWlLk6GJQsqaUBKTNV-1" vertex="1">
          <mxGeometry x="280" y="130" width="300" height="120" as="geometry" />
        </mxCell>
        <mxCell id="rSAbFD3-HXAI0_QFLw_8-1" value="&lt;font style=&quot;font-size: 18px;&quot;&gt;Device Provisioning App&lt;/font&gt;" style="text;html=1;strokeColor=none;fillColor=none;align=center;verticalAlign=middle;whiteSpace=wrap;rounded=0;" parent="WIyWlLk6GJQsqaUBKTNV-1" vertex="1">
          <mxGeometry x="300" y="140" width="200" height="30" as="geometry" />
        </mxCell>
        <mxCell id="rSAbFD3-HXAI0_QFLw_8-2" value="&lt;font style=&quot;font-size: 14px;&quot;&gt;FKPS TA Provisioning Object&lt;/font&gt;" style="rounded=0;whiteSpace=wrap;html=1;fillColor=#0050ef;fontColor=#ffffff;strokeColor=#001DBC;" parent="WIyWlLk6GJQsqaUBKTNV-1" vertex="1">
          <mxGeometry x="340" y="180" width="180" height="50" as="geometry" />
        </mxCell>
        <mxCell id="rSAbFD3-HXAI0_QFLw_8-4" value="" style="rounded=1;whiteSpace=wrap;html=1;fillColor=#dae8fc;strokeColor=#6c8ebf;" parent="WIyWlLk6GJQsqaUBKTNV-1" vertex="1">
          <mxGeometry x="285" y="330" width="290" height="240" as="geometry" />
        </mxCell>
        <mxCell id="rSAbFD3-HXAI0_QFLw_8-5" value="&lt;font style=&quot;font-size: 18px;&quot;&gt;SecAPI3 TA&lt;/font&gt;" style="text;html=1;strokeColor=none;fillColor=none;align=center;verticalAlign=middle;whiteSpace=wrap;rounded=0;" parent="WIyWlLk6GJQsqaUBKTNV-1" vertex="1">
          <mxGeometry x="295" y="340" width="120" height="30" as="geometry" />
        </mxCell>
        <mxCell id="rSAbFD3-HXAI0_QFLw_8-7" value="&lt;font style=&quot;font-size: 14px;&quot;&gt;SecAPI3 TA Key(s)&lt;/font&gt;" style="rounded=0;whiteSpace=wrap;html=1;fillColor=#0050ef;fontColor=#ffffff;strokeColor=#001DBC;" parent="WIyWlLk6GJQsqaUBKTNV-1" vertex="1">
          <mxGeometry x="340" y="449.5" width="180" height="30" as="geometry" />
        </mxCell>
        <mxCell id="rSAbFD3-HXAI0_QFLw_8-9" value="" style="endArrow=classic;html=1;rounded=0;fontSize=14;exitX=0.5;exitY=1;exitDx=0;exitDy=0;entryX=0.173;entryY=0;entryDx=0;entryDy=0;entryPerimeter=0;" parent="WIyWlLk6GJQsqaUBKTNV-1" source="rSAbFD3-HXAI0_QFLw_8-7" edge="1">
          <mxGeometry width="50" height="50" relative="1" as="geometry">
            <mxPoint x="425" y="664.5" as="sourcePoint" />
            <mxPoint x="429.02999999999975" y="504.5" as="targetPoint" />
          </mxGeometry>
        </mxCell>
        <mxCell id="rSAbFD3-HXAI0_QFLw_8-10" value="&lt;font style=&quot;font-size: 14px;&quot;&gt;SoC TA Formatted Key(s)&lt;/font&gt;" style="rounded=0;whiteSpace=wrap;html=1;fillColor=#e1d5e7;strokeColor=#9673a6;" parent="WIyWlLk6GJQsqaUBKTNV-1" vertex="1">
          <mxGeometry x="340" y="501.5" width="180" height="30" as="geometry" />
        </mxCell>
        <mxCell id="rSAbFD3-HXAI0_QFLw_8-26" value="" style="shape=flexArrow;endArrow=classic;html=1;rounded=0;fontSize=14;" parent="WIyWlLk6GJQsqaUBKTNV-1" edge="1">
          <mxGeometry width="50" height="50" relative="1" as="geometry">
            <mxPoint x="429.5" y="270" as="sourcePoint" />
            <mxPoint x="429.5" y="310" as="targetPoint" />
          </mxGeometry>
        </mxCell>
        <mxCell id="rSAbFD3-HXAI0_QFLw_8-28" value="&lt;font style=&quot;font-size: 14px;&quot;&gt;sa_key_provision_ta()&lt;/font&gt;" style="text;html=1;strokeColor=none;fillColor=none;align=center;verticalAlign=middle;whiteSpace=wrap;rounded=0;" parent="WIyWlLk6GJQsqaUBKTNV-1" vertex="1">
          <mxGeometry x="230" y="280" width="140" height="30" as="geometry" />
        </mxCell>
        <mxCell id="rSAbFD3-HXAI0_QFLw_8-30" value="&lt;font style=&quot;font-size: 14px;&quot;&gt;FKPS Encrypted DRM Key&lt;/font&gt;" style="rounded=0;whiteSpace=wrap;html=1;fillColor=#0050ef;fontColor=#ffffff;strokeColor=#001DBC;" parent="WIyWlLk6GJQsqaUBKTNV-1" vertex="1">
          <mxGeometry x="340" y="394.5" width="180" height="30" as="geometry" />
        </mxCell>
        <mxCell id="rSAbFD3-HXAI0_QFLw_8-31" value="" style="endArrow=classic;html=1;rounded=0;fontSize=14;exitX=0.5;exitY=1;exitDx=0;exitDy=0;" parent="WIyWlLk6GJQsqaUBKTNV-1" source="rSAbFD3-HXAI0_QFLw_8-30" edge="1">
          <mxGeometry width="50" height="50" relative="1" as="geometry">
            <mxPoint x="425" y="474.5" as="sourcePoint" />
            <mxPoint x="430" y="449.5" as="targetPoint" />
          </mxGeometry>
        </mxCell>
        <mxCell id="rSAbFD3-HXAI0_QFLw_8-32" value="&lt;font style=&quot;font-size: 14px;&quot;&gt;FKPS TA Provisioning Object&lt;/font&gt;" style="rounded=0;whiteSpace=wrap;html=1;fillColor=#0050ef;fontColor=#ffffff;strokeColor=#001DBC;" parent="WIyWlLk6GJQsqaUBKTNV-1" vertex="1">
          <mxGeometry x="340" y="380" width="180" height="44.5" as="geometry" />
        </mxCell>
        <mxCell id="rSAbFD3-HXAI0_QFLw_8-33" value="" style="endArrow=classic;html=1;rounded=0;fontSize=14;exitX=0.5;exitY=1;exitDx=0;exitDy=0;" parent="WIyWlLk6GJQsqaUBKTNV-1" source="rSAbFD3-HXAI0_QFLw_8-32" edge="1">
          <mxGeometry width="50" height="50" relative="1" as="geometry">
            <mxPoint x="425" y="474.5" as="sourcePoint" />
            <mxPoint x="430" y="449.5" as="targetPoint" />
          </mxGeometry>
        </mxCell>
        <mxCell id="rSAbFD3-HXAI0_QFLw_8-35" value="" style="shape=flexArrow;endArrow=classic;html=1;rounded=0;fontSize=14;" parent="WIyWlLk6GJQsqaUBKTNV-1" edge="1">
          <mxGeometry width="50" height="50" relative="1" as="geometry">
            <mxPoint x="429.5" y="585" as="sourcePoint" />
            <mxPoint x="429.5" y="625" as="targetPoint" />
          </mxGeometry>
        </mxCell>
        <mxCell id="JlLDJKc8CltwGpM95NHZ-1" value="SoC TA Key(s) and/or Credential(s)" style="text;html=1;align=center;verticalAlign=middle;whiteSpace=wrap;rounded=0;" vertex="1" parent="WIyWlLk6GJQsqaUBKTNV-1">
          <mxGeometry x="260" y="590" width="120" height="30" as="geometry" />
        </mxCell>
      </root>
    </mxGraphModel>
  </diagram>
</mxfile>
